<svg width="22" height="22" viewBox="0 0 22 22" fill="none" xmlns="http://www.w3.org/2000/svg">
<path d="M3.42285e-08 21C-7.91831e-09 21.5523 0.447715 22 1 22L10 22C10.5523 22 11 21.5523 11 21C11 20.4477 10.5523 20 10 20L2 20L2 12C2 11.4477 1.55228 11 1 11C0.447715 11 -5.00652e-08 11.4477 -5.00652e-08 12L3.42285e-08 21ZM22 0.999998C22 0.447714 21.5523 -1.2621e-06 21 -1.51498e-06L12 -7.14193e-07C11.4477 -1.05137e-06 11 0.447714 11 0.999999C11 1.55228 11.4477 2 12 2L20 2L20 10C20 10.5523 20.4477 11 21 11C21.5523 11 22 10.5523 22 10L22 0.999998ZM1.70711 21.7071L21.7071 1.70711L20.2929 0.292892L0.292893 20.2929L1.70711 21.7071Z" fill="white"/>
</svg>