<svg width="27" height="24" viewBox="0 0 27 24" fill="none" xmlns="http://www.w3.org/2000/svg">
<path d="M5.625 21C5.00625 21 4.47637 20.8043 4.03537 20.413C3.59512 20.021 3.375 19.55 3.375 19V5C3.375 4.45 3.59512 3.979 4.03537 3.587C4.47637 3.19567 5.00625 3 5.625 3H21.375C21.9937 3 22.5236 3.19567 22.9646 3.587C23.4049 3.979 23.625 4.45 23.625 5V19C23.625 19.55 23.4049 20.021 22.9646 20.413C22.5236 20.8043 21.9937 21 21.375 21H5.625ZM9 17C9.31875 17 9.58613 16.904 9.80213 16.712C10.0174 16.5207 10.125 16.2833 10.125 16C10.125 15.7167 10.0174 15.479 9.80213 15.287C9.58613 15.0957 9.31875 15 9 15C8.68125 15 8.41388 15.0957 8.19788 15.287C7.98263 15.479 7.875 15.7167 7.875 16C7.875 16.2833 7.98263 16.5207 8.19788 16.712C8.41388 16.904 8.68125 17 9 17ZM9 13C9.31875 13 9.58613 12.904 9.80213 12.712C10.0174 12.5207 10.125 12.2833 10.125 12C10.125 11.7167 10.0174 11.479 9.80213 11.287C9.58613 11.0957 9.31875 11 9 11C8.68125 11 8.41388 11.0957 8.19788 11.287C7.98263 11.479 7.875 11.7167 7.875 12C7.875 12.2833 7.98263 12.5207 8.19788 12.712C8.41388 12.904 8.68125 13 9 13ZM9 9C9.31875 9 9.58613 8.904 9.80213 8.712C10.0174 8.52067 10.125 8.28333 10.125 8C10.125 7.71667 10.0174 7.479 9.80213 7.287C9.58613 7.09567 9.31875 7 9 7C8.68125 7 8.41388 7.09567 8.19788 7.287C7.98263 7.479 7.875 7.71667 7.875 8C7.875 8.28333 7.98263 8.52067 8.19788 8.712C8.41388 8.904 8.68125 9 9 9ZM13.5 17H18C18.3188 17 18.5857 16.904 18.801 16.712C19.017 16.5207 19.125 16.2833 19.125 16C19.125 15.7167 19.017 15.479 18.801 15.287C18.5857 15.0957 18.3188 15 18 15H13.5C13.1812 15 12.9143 15.0957 12.699 15.287C12.483 15.479 12.375 15.7167 12.375 16C12.375 16.2833 12.483 16.5207 12.699 16.712C12.9143 16.904 13.1812 17 13.5 17ZM13.5 13H18C18.3188 13 18.5857 12.904 18.801 12.712C19.017 12.5207 19.125 12.2833 19.125 12C19.125 11.7167 19.017 11.479 18.801 11.287C18.5857 11.0957 18.3188 11 18 11H13.5C13.1812 11 12.9143 11.0957 12.699 11.287C12.483 11.479 12.375 11.7167 12.375 12C12.375 12.2833 12.483 12.5207 12.699 12.712C12.9143 12.904 13.1812 13 13.5 13ZM13.5 9H18C18.3188 9 18.5857 8.904 18.801 8.712C19.017 8.52067 19.125 8.28333 19.125 8C19.125 7.71667 19.017 7.479 18.801 7.287C18.5857 7.09567 18.3188 7 18 7H13.5C13.1812 7 12.9143 7.09567 12.699 7.287C12.483 7.479 12.375 7.71667 12.375 8C12.375 8.28333 12.483 8.52067 12.699 8.712C12.9143 8.904 13.1812 9 13.5 9Z" fill="black"/>
</svg>
