<svg width="30" height="30" viewBox="0 0 15 30" fill="none" xmlns="http://www.w3.org/2000/svg">
<path d="M6.44 3C4.65333 3 3.02667 3.4 1.56 4.2L0.8 2.04C1.36 1.72 2.16 1.41333 3.2 1.12C4.26667 0.826666 5.44 0.68 6.72 0.68C8.13333 0.68 9.30667 0.866666 10.24 1.24C11.2 1.58667 11.96 2.05333 12.52 2.64C13.08 3.2 13.48 3.84 13.72 4.56C13.96 5.28 14.08 5.98666 14.08 6.68C14.08 7.64 13.9067 8.49333 13.56 9.24C13.2133 9.98667 12.7733 10.68 12.24 11.32C11.7067 11.96 11.1333 12.5733 10.52 13.16C9.93333 13.7467 9.37333 14.36 8.84 15C8.30667 15.6133 7.86667 16.28 7.52 17C7.17333 17.72 7 18.52 7 19.4C7 19.6933 7 19.92 7 20.08C7 20.2133 7.01333 20.3467 7.04 20.48H4.96C4.90667 20.2133 4.86667 19.9333 4.84 19.64C4.81333 19.32 4.8 19 4.8 18.68C4.8 17.7733 4.96 16.9733 5.28 16.28C5.6 15.56 6 14.8933 6.48 14.28C6.96 13.6667 7.48 13.0933 8.04 12.56C8.6 12 9.12 11.44 9.6 10.88C10.08 10.2933 10.48 9.68 10.8 9.04C11.12 8.37333 11.28 7.62667 11.28 6.8C11.28 6.05333 11.1467 5.44 10.88 4.96C10.6133 4.45333 10.2533 4.05333 9.8 3.76C9.37333 3.46667 8.86667 3.26667 8.28 3.16C7.69333 3.05333 7.08 3 6.44 3ZM8.4 27.28C8.4 27.8933 8.2 28.4133 7.8 28.84C7.42667 29.2667 6.89333 29.48 6.2 29.48C5.50667 29.48 4.96 29.2667 4.56 28.84C4.18667 28.4133 4 27.8933 4 27.28C4 26.6667 4.18667 26.1467 4.56 25.72C4.96 25.2933 5.50667 25.08 6.2 25.08C6.89333 25.08 7.42667 25.2933 7.8 25.72C8.2 26.1467 8.4 26.6667 8.4 27.28Z" fill="white"/>
</svg>