<svg width="27" height="24" viewBox="0 0 27 24" fill="none" xmlns="http://www.w3.org/2000/svg">
<path d="M5.625 21C5.00625 21 4.47656 20.8042 4.03594 20.4125C3.59531 20.0208 3.375 19.55 3.375 19V5C3.375 4.45 3.59531 3.97917 4.03594 3.5875C4.47656 3.19583 5.00625 3 5.625 3H21.375C21.9937 3 22.5234 3.19583 22.9641 3.5875C23.4047 3.97917 23.625 4.45 23.625 5V19C23.625 19.55 23.4047 20.0208 22.9641 20.4125C22.5234 20.8042 21.9937 21 21.375 21H5.625ZM13.5 6C12.075 6 10.8187 6.44167 9.73125 7.325C8.64375 8.20833 8.1 9.40833 8.1 10.925C8.1 12.1417 8.63438 13.3417 9.70312 14.525C10.7719 15.7083 11.7844 16.675 12.7406 17.425C12.8531 17.5083 12.975 17.5708 13.1062 17.6125C13.2375 17.6542 13.3687 17.675 13.5 17.675C13.6312 17.675 13.7625 17.6542 13.8938 17.6125C14.025 17.5708 14.1469 17.5083 14.2594 17.425C15.2156 16.675 16.2281 15.7083 17.2969 14.525C18.3656 13.3417 18.9 12.1417 18.9 10.925C18.9 9.40833 18.3562 8.20833 17.2687 7.325C16.1812 6.44167 14.925 6 13.5 6ZM13.5 12.25C13.1062 12.25 12.7734 12.1292 12.5016 11.8875C12.2297 11.6458 12.0938 11.35 12.0938 11C12.0938 10.65 12.2297 10.3542 12.5016 10.1125C12.7734 9.87083 13.1062 9.75 13.5 9.75C13.8938 9.75 14.2266 9.87083 14.4984 10.1125C14.7703 10.3542 14.9062 10.65 14.9062 11C14.9062 11.35 14.7703 11.6458 14.4984 11.8875C14.2266 12.1292 13.8938 12.25 13.5 12.25Z" fill="black"/>
</svg>
