<svg width="44" height="102" viewBox="0 0 44 102" fill="none" xmlns="http://www.w3.org/2000/svg">
<path d="M15.2402 10.1683L16.638 10.7126L15.2402 10.1683ZM9.82744 28.8229L8.36598 28.4851L9.82744 28.8229ZM9.1531 58.2858L7.84386 59.0178L9.1531 58.2858ZM30.5141 65.888L30.9936 67.3093L30.5141 65.888ZM41.3674 54.2681L42.7247 53.6296L41.3674 54.2681ZM23.8652 50.883L24.5081 52.2382L23.8652 50.883ZM9.42813 67.292L10.8348 67.8129L9.42813 67.292ZM6.79611 79.2176L5.29633 79.1916L6.79611 79.2176ZM14.1692 101.123C14.9363 101.436 15.8118 101.067 16.1247 100.3L21.2246 87.8008C21.5375 87.0337 21.1694 86.1582 20.4024 85.8453C19.6354 85.5323 18.7598 85.9004 18.4469 86.6675L13.9137 97.7783L2.80287 93.2451C2.03583 92.9321 1.16032 93.3002 0.847365 94.0673C0.534412 94.8343 0.902522 95.7098 1.66956 96.0228L14.1692 101.123ZM17.4601 0.0955023C16.501 3.34065 15.1235 6.33441 13.8425 9.62394L16.638 10.7126C17.8345 7.64015 19.3311 4.3494 20.337 0.945792L17.4601 0.0955023ZM13.8425 9.62394C11.4551 15.7542 9.84327 22.0948 8.36598 28.4851L11.2889 29.1608C12.7603 22.7959 14.3332 16.6309 16.638 10.7126L13.8425 9.62394ZM8.36598 28.4851C7.20374 33.5126 5.93759 39.0711 5.51519 44.347C5.09418 49.6054 5.48868 54.8057 7.84386 59.0178L10.4623 57.5537C8.53682 54.11 8.10235 49.6233 8.50562 44.5864C8.90748 39.567 10.1189 34.222 11.2889 29.1608L8.36598 28.4851ZM7.84386 59.0178C12.8041 67.889 22.7823 70.0798 30.9936 67.3093L30.0346 64.4667C22.8843 66.8792 14.5701 64.9003 10.4623 57.5537L7.84386 59.0178ZM30.9936 67.3093C32.0782 66.9434 35.652 65.4834 38.6338 63.2965C40.1202 62.2065 41.5772 60.8515 42.4587 59.2577C43.3751 57.6007 43.676 55.6517 42.7247 53.6296L40.0101 54.9066C40.4762 55.8973 40.3767 56.8236 39.8335 57.8058C39.2552 58.8512 38.1933 59.8993 36.8596 60.8774C34.2014 62.827 30.9313 64.1642 30.0346 64.4667L30.9936 67.3093ZM42.7247 53.6296C40.8371 49.6169 37.3137 47.883 33.6499 47.5229C30.0426 47.1683 26.198 48.1161 23.2223 49.5278L24.5081 52.2382C27.1168 51.0007 30.4134 50.2192 33.3564 50.5085C36.2426 50.7922 38.6783 52.0755 40.0101 54.9066L42.7247 53.6296ZM23.2223 49.5278C17.2771 52.3481 11.2119 58.1561 8.02149 66.771L10.8348 67.8129C13.7475 59.9478 19.2552 54.7302 24.5081 52.2382L23.2223 49.5278ZM8.02149 66.771C6.47789 70.9391 5.37833 74.4562 5.29633 79.1916L8.29589 79.2436C8.36905 75.0181 9.32856 71.88 10.8348 67.8129L8.02149 66.771ZM5.29633 79.1916C5.19809 84.8653 6.48433 88.4063 8.2241 91.4771C9.05688 92.9471 10.0263 94.3597 10.8889 95.7223C11.773 97.1187 12.621 98.574 13.3531 100.315L16.1186 99.1524C15.2949 97.1932 14.3492 95.5795 13.4237 94.1176C12.4767 92.6218 11.6208 91.3866 10.8343 89.9984C9.3355 87.3528 8.2077 84.3362 8.29589 79.2436L5.29633 79.1916Z" fill="black"/>
</svg>
