<?xml version="1.0" encoding="UTF-8"?>
<!DOCTYPE svg PUBLIC "-//W3C//DTD SVG 1.1//EN" "http://www.w3.org/Graphics/SVG/1.1/DTD/svg11.dtd">
<svg xmlns="http://www.w3.org/2000/svg" version="1.1" width="512px" height="512px" style="shape-rendering:geometricPrecision; text-rendering:geometricPrecision; image-rendering:optimizeQuality; fill-rule:evenodd; clip-rule:evenodd" xmlns:xlink="http://www.w3.org/1999/xlink">
<g><path style="opacity:0.973" fill="#000000" d="M 248.5,-0.5 C 253.167,-0.5 257.833,-0.5 262.5,-0.5C 273.677,3.47325 279.843,11.4733 281,23.5C 281.5,32.8274 281.666,42.1607 281.5,51.5C 346.625,61.173 396.459,93.8397 431,149.5C 444.934,174.136 453.767,200.469 457.5,228.5C 467.483,229.332 477.483,229.832 487.5,230C 499.527,231.157 507.527,237.323 511.5,248.5C 511.5,253.167 511.5,257.833 511.5,262.5C 507.527,273.677 499.527,279.843 487.5,281C 477.151,281.168 466.817,281.668 456.5,282.5C 440.718,365.111 393.051,419.945 313.5,447C 303.016,450.122 292.349,452.288 281.5,453.5C 281.881,466.879 281.381,480.212 280,493.5C 277.317,502.682 271.483,508.682 262.5,511.5C 257.833,511.5 253.167,511.5 248.5,511.5C 239.517,508.682 233.683,502.682 231,493.5C 229.619,480.212 229.119,466.879 229.5,453.5C 153.554,441.371 99.7207,400.371 68,330.5C 61.9408,314.929 57.4408,298.929 54.5,282.5C 44.1827,281.668 33.8494,281.168 23.5,281C 11.4733,279.843 3.47325,273.677 -0.5,262.5C -0.5,257.833 -0.5,253.167 -0.5,248.5C 3.47325,237.323 11.4733,231.157 23.5,230C 33.5166,229.832 43.5166,229.332 53.5,228.5C 67.3261,143.182 114.993,86.3488 196.5,58C 207.253,54.5414 218.253,52.3748 229.5,51.5C 229.334,42.1607 229.5,32.8274 230,23.5C 231.157,11.4733 237.323,3.47325 248.5,-0.5 Z M 254.5,91.5 C 323.627,94.7905 373.127,127.457 403,189.5C 426.806,252.891 416.806,310.224 373,361.5C 331.048,404.037 280.548,419.87 221.5,409C 155.046,391.546 113.879,349.379 98,282.5C 88.3746,215.672 110.208,161.838 163.5,121C 191.025,102.213 221.358,92.3798 254.5,91.5 Z"/></g>
<g><path style="opacity:0.984" fill="#000000" d="M 253.5,182.5 C 291.936,184.451 315.436,204.118 324,241.5C 327.321,276.706 313.155,301.873 281.5,317C 245.87,328.235 217.37,318.735 196,288.5C 179.269,255.052 184.103,225.219 210.5,199C 223.182,188.984 237.516,183.484 253.5,182.5 Z"/></g>
</svg>
